{"title":"Blues Brothers 2000 1998 DVDrip English Klam","uid":6604525,"size":1893707670,"categoryP":"video","categoryS":"movies","magnet":"?xt=urn:btih:ebf23f54657efc53cb7ec8d62f7f3cad3a1d9e8d&amp;dn=Blues+Brothers+2000+1998+DVDrip+English+Klam&amp;tr=udp%3A%2F%2Ftracker.openbittorrent.com%3A80&amp;tr=udp%3A%2F%2Fopen.demonii.com%3A1337&amp;tr=udp%3A%2F%2Ftracker.coppersurfer.tk%3A6969&amp;tr=udp%3A%2F%2Fexodus.desync.com%3A6969","seeders":15,"leechers":0,"uploader":"Klambake","files":-1,"time":1313340788,"description":"With: Dan Aykroyd, John Goodman en Joe Morton\n\nAchttien jaar na de eerste missie van God van de Blues Brothers komt Elwood Blues (Dan Aykroyd) vrij en ontdekt dat er al die jaren veel is veranderd. Zijn maatje Jack is dood, zijn band is uit elkaar en het weeshuis waar hij is opgegroeid, is gesloopt. Elwood ontdekt al snel dat hij een nieuwe missie te volbrengen heeft: hij moet de band opnieuw bij elkaar halen, ditmaal met de hulp van een barman vol soul, (John Goodman), hij moet meedoen aan de Battle of the Bands bij Queen Moussette (Erykah Badu) en hij moet een nogal eigenwijs weeskind genaamd Buster op het juiste pad brengen. Temidden van alle chaos moet hij de politie bewijzen dat er magie in zijn muziek zit... en dat er achter de Blues Brothers-gekte een mysterieus en uniek recept schuilt.\n\nElwood must reunite the old band, with a few new members, and go on another &quot;Mission from God.&quot; \n\n------------------ Dutch Friends ------------------\nYou can find my Friends at: http://www.Film-Test.nl \n------ They got my dutchs subs ---- and more ------\n\nGeneral:\n\nComplete name                    : Blues Brothers 2000\\Blues Brothers 2000.avi\nFormat                           : AVI\nFormat/Info                      : Audio Video Interleave\nFile size                        : 1.76 GiB\nDuration                         : 1h 58mn\nOverall bit rate                 : 2 130 Kbps\n\nVideo:\n\nFormat                           : MPEG-4 Visual\nFormat profile                   : Simple@L3\nFormat settings, BVOP            : No\nFormat settings, QPel            : No\nFormat settings, GMC             : No warppoints\nFormat settings, Matrix          : Default (H.263)\nCodec ID                         : XVID\nCodec ID/Hint                    : XviD\nDuration                         : 1h 58mn\nBit rate                         : 1 735 Kbps\nWidth                            : 652 pixels\nHeight                           : 352 pixels\nDisplay aspect ratio             : 1.852\nFrame rate                       : 25.000 fps\nColor space                      : YUV\nChroma subsampling               : 4:2:0\nBit depth                        : 8 bits\nScan type                        : Progressive\nBits/(Pixel*Frame)               : 0.302\nStream size                      : 1.44 GiB (81%)\nWriting library                  : XviD 1.1.2 (UTC 2006-11-01)\n\nAudio:\n\nFormat                           : AC-3\nFormat/Info                      : Audio Coding 3\nMode extension                   : CM (complete main)\nCodec ID                         : 2000\nDuration                         : 1h 58mn\nBit rate mode                    : Constant\nBit rate                         : 384 Kbps\nChannel(s)                       : 6 channels\nChannel positions                : Front: L C R, Side: L R, LFE\nSampling rate                    : 48.0 KHz\nBit depth                        : 16 bits\nStream size                      : 326 MiB (18%)\nAlignment                        : Aligned on interleaves\nInterleave, duration             : 32 ms (0.80 video frame)\nInterleave, preload duration     : 64 ms\n\n","torrent":{"xt":"urn:btih:ebf23f54657efc53cb7ec8d62f7f3cad3a1d9e8d","amp;dn":"Blues+Brothers+2000+1998+DVDrip+English+Klam","amp;tr":["udp%3A%2F%2Ftracker.openbittorrent.com%3A80","udp%3A%2F%2Fopen.demonii.com%3A1337","udp%3A%2F%2Ftracker.coppersurfer.tk%3A6969","udp%3A%2F%2Fexodus.desync.com%3A6969"],"infoHash":"ebf23f54657efc53cb7ec8d62f7f3cad3a1d9e8d","infoHashBuffer":{"type":"Buffer","data":[235,242,63,84,101,126,252,83,203,126,200,214,47,127,60,173,58,29,158,141]},"announce":[],"urlList":[]}}